<mxfile host="app.diagrams.net" modified="2023-09-11T00:58:11.886Z" agent="Mozilla/5.0 (Windows NT 10.0; Win64; x64) AppleWebKit/537.36 (KHTML, like Gecko) Chrome/116.0.0.0 Safari/537.36" etag="SG1EXa__pGOUVXVnzyMy" version="21.7.2" type="github">
  <diagram name="Page-1" id="CK2tuG1MRMVlKgBZZ9c_">
    <mxGraphModel dx="682" dy="1014" grid="1" gridSize="10" guides="1" tooltips="1" connect="1" arrows="1" fold="1" page="1" pageScale="1" pageWidth="4681" pageHeight="3300" math="0" shadow="0">
      <root>
        <mxCell id="0" />
        <mxCell id="1" parent="0" />
        <mxCell id="yDmazADiWXgwq22ZlrH2-1" value="&lt;font style=&quot;font-size: 29px;&quot;&gt;&lt;b&gt;model&lt;/b&gt;&lt;/font&gt;" style="rounded=1;whiteSpace=wrap;html=1;" vertex="1" parent="1">
          <mxGeometry x="240" y="120" width="170" height="80" as="geometry" />
        </mxCell>
        <mxCell id="yDmazADiWXgwq22ZlrH2-2" value="&lt;font size=&quot;1&quot; style=&quot;&quot;&gt;&lt;b style=&quot;font-size: 30px;&quot;&gt;ui&lt;/b&gt;&lt;/font&gt;" style="rounded=1;whiteSpace=wrap;html=1;" vertex="1" parent="1">
          <mxGeometry x="255" y="350" width="140" height="70" as="geometry" />
        </mxCell>
        <mxCell id="yDmazADiWXgwq22ZlrH2-3" value="" style="shape=flexArrow;endArrow=classic;html=1;rounded=0;entryX=0.5;entryY=1;entryDx=0;entryDy=0;" edge="1" parent="1" target="yDmazADiWXgwq22ZlrH2-1">
          <mxGeometry width="50" height="50" relative="1" as="geometry">
            <mxPoint x="324.5" y="350" as="sourcePoint" />
            <mxPoint x="324.5" y="290" as="targetPoint" />
          </mxGeometry>
        </mxCell>
      </root>
    </mxGraphModel>
  </diagram>
</mxfile>
